<svg xmlns="http://www.w3.org/2000/svg" xmlns:xlink="http://www.w3.org/1999/xlink"><symbol viewBox="0 0 32 32" id="arrow-down" xmlns="http://www.w3.org/2000/svg"><path d="M31.296 7.68c-.256-.32-.704-.512-1.216-.512-.448 0-.896.192-1.216.512L16 20.736 3.2 7.68c-.256-.32-.704-.512-1.216-.512-.448 0-.896.192-1.216.448S.256 8.32.256 8.768c0 .512.192.96.512 1.28L14.72 24.32c.32.32.704.512 1.152.512.256 0 .512-.064.768-.192.128-.064.256-.128.384-.128l.128-.064 14.016-14.336c.768-.64.704-1.728.128-2.432z"></path></symbol><symbol viewBox="0 0 32 32" id="arrow-down-long" xmlns="http://www.w3.org/2000/svg"><path d="M14.32 2v23.84l-4.88-4.96c-.64-.64-1.76-.64-2.4 0-.32.32-.48.72-.48 1.2s.16.88.48 1.2l7.84 7.84c.08.08.16.16.32.24.08.08.16.08.24.16h.08c.08 0 .16.08.24.08.24.08.48.08.64 0 .08 0 .16 0 .24-.08h.08c.08 0 .16-.08.24-.08l.08-.08.24-.24 7.84-7.84c.32-.32.48-.72.48-1.2s-.16-.88-.48-1.2c-.32-.32-.72-.48-1.2-.48s-.88.16-1.2.48l-4.88 4.96V2c0-.96-.8-1.68-1.68-1.68-1.12 0-1.84.72-1.84 1.68z"></path></symbol><symbol viewBox="0 0 32 32" id="arrow-filter-down" xmlns="http://www.w3.org/2000/svg"><path fill="currentColor" d="M30.8 9.04c-.24-.48-.72-.8-1.2-.8H2.4c-.48 0-.96.32-1.2.8s-.16.96.24 1.36l13.6 12.88c.24.32.64.48.96.48s.72-.16.96-.48l13.6-12.88c.4-.4.48-.88.24-1.36z"></path></symbol><symbol viewBox="0 0 32 32" id="arrow-filter-up" xmlns="http://www.w3.org/2000/svg"><path fill="currentColor" d="M30.8 22.96c-.24.48-.72.8-1.2.8H2.4c-.48 0-.96-.32-1.2-.8s-.16-.96.24-1.36l13.6-12.88c.24-.32.64-.48.96-.48s.72.16.96.48l13.6 12.88c.4.4.48.88.24 1.36z"></path></symbol><symbol viewBox="0 0 32 32" id="arrow-left" xmlns="http://www.w3.org/2000/svg"><path d="M11.264 16.064L24.448 3.456c.32-.32.512-.768.512-1.28 0-.448-.192-.896-.512-1.216-.64-.64-1.856-.64-2.496 0l-14.4 13.824c-.32.32-.512.768-.512 1.216s.192.896.512 1.216l14.336 13.76c.32.32.768.512 1.216.512s.896-.192 1.216-.512l.064-.128c.32-.384.448-.768.448-1.088 0-.448-.192-.832-.512-1.152L11.264 16.064z"></path></symbol><symbol viewBox="0 0 32 32" id="arrow-right" xmlns="http://www.w3.org/2000/svg"><path d="M24.448 14.784L10.048.96c-.64-.64-1.856-.64-2.496 0-.32.32-.512.768-.512 1.28 0 .448.192.896.512 1.216l13.12 12.608-13.12 12.608c-.32.32-.512.704-.512 1.152 0 .32.128.64.448 1.088l.064.128c.32.32.768.512 1.216.512s.896-.192 1.216-.512L24.32 17.28c.32-.32.512-.768.512-1.216s-.064-.96-.384-1.28z"></path></symbol><symbol viewBox="0 0 32 32" id="arrow-up" xmlns="http://www.w3.org/2000/svg"><path d="M31.04 21.952l-13.824-14.4c-.64-.64-1.856-.64-2.432 0L.96 21.952a1.862 1.862 0 0 0 0 2.496c.32.32.768.512 1.28.512s.896-.192 1.216-.512l12.608-13.12 12.608 13.12c.32.32.704.512 1.152.512.32 0 .64-.128 1.152-.512.704-.704.704-1.856.064-2.496z"></path></symbol><symbol viewBox="0 0 32 32" id="arrow-up-long" xmlns="http://www.w3.org/2000/svg"><path d="M17.68 30V6.16l4.88 4.96c.64.64 1.76.64 2.4 0 .32-.32.48-.72.48-1.2s-.16-.88-.48-1.2L17.2.8c-.08-.08-.16-.16-.32-.24-.08-.08-.16-.08-.24-.16h-.08c-.08 0-.16-.08-.24-.08-.24-.08-.48-.08-.64 0-.08 0-.16 0-.24.08h-.08c-.08 0-.16.08-.24.08l-.08.08-.24.24-7.84 7.84c-.32.32-.48.72-.48 1.2s.16.88.48 1.2c.32.32.72.48 1.2.48s.88-.16 1.2-.48l4.88-4.96v23.84c0 .96.8 1.68 1.68 1.68 1.04.08 1.76-.64 1.76-1.6z"></path></symbol><symbol viewBox="0 0 32 35" id="asterik" xmlns="http://www.w3.org/2000/svg"><path d="M32 23.488l-11.12-6.42 11.118-6.42-2.409-4.224-11.091 6.422V0H13.62v12.841L2.468 6.421.015 10.644l11.118 6.423L0 23.492l2.467 4.224 11.154-6.424v12.844h4.877V21.29l11.093 6.422L32 23.488z"></path></symbol><symbol viewBox="0 0 32 32" id="check" xmlns="http://www.w3.org/2000/svg"><path d="M30.72 5.824a1.816 1.816 0 0 0-2.56 0l-16.64 16.64-7.744-7.744c-.64-.64-1.856-.64-2.496 0a1.816 1.816 0 0 0 0 2.56l8.96 8.96c.32.32.768.512 1.216.512.256 0 .832 0 1.344-.512L30.72 8.32a1.739 1.739 0 0 0 0-2.496z"></path></symbol><symbol viewBox="0 0 32 32" id="close" xmlns="http://www.w3.org/2000/svg"><path d="M29.12 26.816l-10.88-10.88L29.12 5.184c.32-.32.448-.704.448-1.088 0-.448-.192-.832-.448-1.088-.576-.576-1.664-.576-2.24 0L16.064 13.76 5.12 2.816c-.576-.576-1.664-.576-2.24 0-.64.64-.64 1.6 0 2.24l10.944 11.008L2.88 26.944c-.32.32-.448.704-.448 1.088 0 .448.192.832.448 1.088s.64.448 1.024.448c.448 0 .896-.256 1.088-.576l10.944-10.816L26.88 29.184c.256.256.64.448 1.024.448s.832-.192 1.152-.576c.64-.64.64-1.6.064-2.24z"></path></symbol><symbol viewBox="0 0 18.9 14.5" id="email" xmlns="http://www.w3.org/2000/svg"><path d="M17.6 1.2v12H1.2v-12h16.4M18.9 0H0v14.5h18.9V0z"></path><path d="M9.6 10.9l-9-9.4.9-.9 8.1 8.5 8-8.5.9.9"></path><path d="M11.574 7.314l.943-.896 5.993 6.308-.943.895zM.608 12.76L6.74 6.31l.942.896-6.13 6.45z"></path></symbol><symbol viewBox="0 0 32 32" id="exclamation" xmlns="http://www.w3.org/2000/svg"><path class="arst0" d="M13.5.7l.8 22.4h4.1L19.2.7zM16.2 25.3c-1.6 0-3 1.4-3 3s1.4 3 3 3 3-1.4 3-3c.3-1.4-1.1-3-3-3z"></path></symbol><symbol viewBox="65.2 173.5 180 180" id="logo" xmlns="http://www.w3.org/2000/svg"><style></style><g id="baXMLID_229_"><g id="baXMLID_690_"><g id="baXMLID_691_"><g id="baXMLID_44_"><g id="baXMLID_48_"><path id="baXMLID_49_" d="M155.2 351.7v-34.2c36.2 0 64.3-35.9 50.4-74-5.1-14.1-16.4-25.4-30.5-30.5-38.1-13.8-74 14.2-74 50.4H67c0-57.7 55.8-102.7 116.3-83.8 26.4 8.3 47.5 29.3 55.7 55.7 18.9 60.6-26 116.4-83.8 116.4z"></path></g><path id="baXMLID_47_" d="M155.3 317.6h-34v-34h34z"></path><path id="baXMLID_46_" d="M121.3 343.8H95.1v-26.2h26.2z"></path><path id="baXMLID_45_" d="M95.1 317.6H73.2v-21.9h21.9v21.9z"></path></g></g></g></g></symbol><symbol viewBox="0 0 32 32" id="minus" xmlns="http://www.w3.org/2000/svg"><path fill="currentColor" d="M1.6 14.16h28.8c.88 0 1.6.72 1.6 1.6v.56c0 .88-.72 1.6-1.6 1.6H1.6c-.88 0-1.6-.72-1.6-1.6v-.56c0-.88.72-1.6 1.6-1.6z"></path></symbol><symbol viewBox="0 0 32 32" id="plus" xmlns="http://www.w3.org/2000/svg"><path fill="currentColor" d="M1.6 14.16h28.8c.88 0 1.6.72 1.6 1.6v.56c0 .88-.72 1.6-1.6 1.6H1.6c-.88 0-1.6-.72-1.6-1.6v-.56c0-.88.72-1.6 1.6-1.6z"></path><path fill="currentColor" d="M15.76 0h.56c.88 0 1.6.72 1.6 1.6v28.8c0 .88-.72 1.6-1.6 1.6h-.56c-.88 0-1.6-.72-1.6-1.6V1.6c0-.88.72-1.6 1.6-1.6z"></path></symbol></svg>